<svg xmlns="http://www.w3.org/2000/svg" xmlns:xlink="http://www.w3.org/1999/xlink" width="2012" zoomAndPan="magnify" viewBox="0 0 1509 1508.999938" height="2012" preserveAspectRatio="xMidYMid meet" version="1.0"><path fill="#242424" d="M 829.664062 668.617188 C 778.035156 668.617188 726.753906 668.617188 675.160156 668.617188 C 675.160156 629.203125 675.160156 590.089844 675.160156 550.976562 C 678.847656 549.84375 821.855469 549.453125 829.355469 550.550781 C 830.476562 554.269531 830.8125 661.804688 829.664062 668.617188 Z M 688.25 561.457031 C 687.863281 561.886719 687.539062 562.105469 687.40625 562.410156 C 687.046875 563.222656 686.710938 564.046875 686.460938 564.894531 C 681.976562 580.34375 681.894531 595.789062 686.792969 611.136719 C 689.195312 618.683594 692.894531 625.546875 698.609375 631.179688 C 709.4375 641.851562 723.421875 642.503906 735.179688 632.871094 C 740.945312 628.152344 745.085938 622.160156 748.070312 615.414062 C 755.144531 599.425781 756.519531 582.855469 752.648438 565.835938 C 752.382812 564.671875 751.769531 563.59375 751.277344 562.382812 C 729.949219 570.609375 708.976562 569.261719 688.25 561.457031 Z M 758.683594 582.355469 C 758.4375 582.980469 758.175781 583.308594 758.207031 583.625 C 759.179688 595.636719 756.996094 606.988281 751.289062 617.660156 C 750.679688 618.792969 750.40625 620.496094 750.773438 621.695312 C 754.328125 633.160156 759.886719 643.386719 770.097656 650.339844 C 781.289062 657.964844 793.875 656.933594 803.902344 647.765625 C 808.863281 643.226562 812.34375 637.675781 814.820312 631.492188 C 820.195312 618.039062 821.09375 604.1875 818.351562 590.058594 C 817.539062 585.785156 816.929688 581.390625 814.363281 577.777344 C 796.410156 589.175781 777.59375 587.035156 758.683594 582.355469 Z M 758.683594 582.355469 " fill-opacity="1" fill-rule="evenodd"/><path fill="#242424" d="M 814.046875 890.480469 C 819.171875 892.042969 824.414062 889.832031 829.101562 892.4375 C 814.097656 893.359375 799.128906 893.125 783.269531 893.167969 C 785.972656 889.9375 788.742188 891.332031 791.089844 891.109375 C 793.679688 890.855469 796.316406 891.046875 799.195312 891.046875 C 799.195312 859.394531 799.195312 828.445312 799.195312 797.214844 C 797.195312 798.039062 797.296875 800.089844 796.789062 801.546875 C 787.035156 829.625 777.378906 857.722656 767.679688 885.820312 C 766.945312 887.945312 766.140625 890.039062 764.929688 893.355469 C 753.738281 861.183594 742.953125 830.191406 732.171875 799.210938 C 731.835938 799.289062 731.503906 799.359375 731.164062 799.441406 C 731.164062 829.796875 731.164062 860.140625 731.164062 891.203125 C 736.25 891.203125 741.109375 891.203125 745.960938 891.203125 C 743.148438 893.457031 720.273438 893.914062 712.085938 892.335938 C 717.78125 889.855469 722.960938 891.996094 728.066406 890.507812 C 728.066406 858.5 728.066406 826.394531 728.066406 793.667969 C 722.996094 793.667969 718.097656 793.667969 712.042969 793.667969 C 713.386719 792.398438 713.808594 791.640625 714.234375 791.632812 C 724.371094 791.570312 734.511719 791.574219 744.902344 791.574219 C 753.609375 816.828125 762.242188 841.84375 770.867188 866.875 C 771.21875 866.902344 771.574219 866.925781 771.921875 866.949219 C 780.578125 841.875 789.238281 816.796875 797.824219 791.910156 C 807.929688 790.796875 825.902344 791.246094 829.253906 793.34375 C 826.75 793.441406 824.242188 793.570312 821.742188 793.617188 C 819.289062 793.660156 816.832031 793.621094 814.058594 793.621094 C 814.046875 826.15625 814.046875 858.132812 814.046875 890.480469 Z M 814.046875 890.480469 " fill-opacity="1" fill-rule="evenodd"/><path fill="#242424" d="M 1091.863281 890.855469 C 1090.222656 891.703125 1088.667969 892.953125 1086.929688 893.355469 C 1081.296875 894.671875 1075.605469 894.726562 1070.070312 892.804688 C 1065.125 891.09375 1062.027344 887.40625 1060.925781 882.457031 C 1059.851562 877.609375 1059.359375 872.632812 1058.765625 867.679688 C 1058.273438 863.628906 1058.1875 859.511719 1057.589844 855.46875 C 1056.183594 845.90625 1050.957031 840.734375 1041.453125 840.007812 C 1035.828125 839.578125 1030.140625 839.929688 1024.078125 839.929688 C 1024.078125 856.914062 1024.078125 873.542969 1024.078125 890.761719 C 1029.054688 890.953125 1034.027344 891.148438 1038.976562 891.332031 C 1035.691406 893.453125 999.765625 893.808594 992.71875 892.171875 C 998.582031 890.050781 1003.757812 891.8125 1009.332031 890.523438 C 1009.386719 858.535156 1009.355469 826.433594 1009.355469 793.566406 C 1003.835938 793.566406 998.832031 793.566406 993.835938 793.566406 C 993.792969 793.15625 993.753906 792.75 993.710938 792.347656 C 994.574219 792.066406 995.433594 791.546875 996.300781 791.542969 C 1011.796875 791.445312 1027.304688 791.316406 1042.800781 791.402344 C 1049.703125 791.4375 1056.132812 793.160156 1061.679688 797.703125 C 1074.175781 807.949219 1073.183594 825.277344 1059.332031 833.5625 C 1056.039062 835.539062 1052.199219 836.613281 1048.304688 838.214844 C 1049.511719 838.609375 1050.746094 838.972656 1051.949219 839.40625 C 1055.113281 840.5625 1058.425781 841.460938 1061.402344 842.96875 C 1068.054688 846.328125 1072.089844 851.707031 1072.738281 859.292969 C 1073.132812 863.902344 1073.292969 868.535156 1073.847656 873.128906 C 1074.351562 877.351562 1074.753906 881.671875 1076.0625 885.675781 C 1078.023438 891.667969 1082.003906 893.152344 1087.851562 890.859375 C 1088.933594 890.429688 1090.011719 889.972656 1091.089844 889.539062 C 1091.34375 889.96875 1091.605469 890.410156 1091.863281 890.855469 Z M 1024.019531 793.457031 C 1024.019531 808.46875 1024.019531 822.753906 1024.019531 837.167969 C 1025.203125 837.328125 1026.066406 837.566406 1026.921875 837.5625 C 1031.191406 837.550781 1035.464844 837.660156 1039.71875 837.359375 C 1046.882812 836.871094 1051.238281 833.351562 1053.203125 826.503906 C 1055.003906 820.257812 1055.082031 813.839844 1053.738281 807.519531 C 1051.828125 798.625 1046.511719 794.109375 1037.382812 793.503906 C 1033.144531 793.222656 1028.882812 793.457031 1024.019531 793.457031 Z M 1024.019531 793.457031 " fill-opacity="1" fill-rule="evenodd"/><path fill="#242424" d="M 564.191406 838.1875 C 565.796875 838.691406 566.945312 839.023438 568.074219 839.402344 C 570.761719 840.324219 573.535156 841.054688 576.113281 842.21875 C 584.136719 845.820312 588.53125 852.042969 589.101562 860.882812 C 589.421875 865.859375 589.660156 870.84375 590.1875 875.796875 C 590.519531 878.953125 590.953125 882.195312 591.964844 885.179688 C 594.1875 891.730469 598.125 893.308594 604.441406 890.652344 C 605.246094 890.320312 606.039062 889.96875 606.859375 889.660156 C 606.972656 889.613281 607.171875 889.769531 607.917969 890.046875 C 607.050781 890.941406 606.46875 892.03125 605.597656 892.363281 C 598.089844 895.152344 590.613281 895.199219 583.398438 891.429688 C 580.257812 889.792969 578.265625 886.90625 577.382812 883.5625 C 576.398438 879.789062 575.730469 875.902344 575.261719 872.046875 C 574.6875 867.269531 574.816406 862.398438 573.96875 857.691406 C 573.300781 853.910156 572.027344 850.117188 570.296875 846.703125 C 568.449219 843.066406 564.957031 840.792969 560.847656 840.453125 C 554.152344 839.894531 547.417969 839.796875 540.28125 839.484375 C 540.28125 856.855469 540.28125 873.480469 540.28125 890.75 C 545.160156 890.933594 550.136719 891.113281 554.972656 891.300781 C 555.074219 892.113281 555.152344 892.296875 555.105469 892.460938 C 555.066406 892.589844 554.890625 892.753906 554.753906 892.777344 C 554.070312 892.933594 553.382812 893.144531 552.695312 893.144531 C 538.96875 893.144531 525.253906 893.121094 511.527344 893.0625 C 511.097656 893.0625 510.660156 892.695312 509.140625 892.03125 C 514.910156 890.035156 520.101562 891.921875 525.078125 890.515625 C 525.078125 858.3125 525.078125 826.179688 525.078125 793.414062 C 519.863281 793.414062 515.003906 793.414062 510.160156 793.414062 C 510.121094 793.058594 510.082031 792.695312 510.050781 792.335938 C 510.90625 792.054688 511.761719 791.539062 512.617188 791.53125 C 527.941406 791.421875 543.265625 791.304688 558.582031 791.375 C 565.28125 791.40625 571.613281 792.890625 577.121094 797.136719 C 590.734375 807.632812 589.460938 825.992188 574.363281 834.207031 C 571.421875 835.792969 568.101562 836.691406 564.191406 838.1875 Z M 540.089844 837.25 C 541.65625 837.394531 542.699219 837.582031 543.742188 837.578125 C 547.65625 837.5625 551.566406 837.648438 555.464844 837.398438 C 563.125 836.902344 567.648438 833.203125 569.523438 825.839844 C 571.164062 819.378906 571.300781 812.804688 569.617188 806.332031 C 568.257812 801.109375 565.34375 796.898438 560.089844 794.933594 C 553.601562 792.519531 546.9375 793.238281 540.089844 793.695312 C 540.089844 808.441406 540.089844 822.589844 540.089844 837.25 Z M 540.089844 837.25 " fill-opacity="1" fill-rule="evenodd"/><path fill="#242424" d="M 643.25 837.058594 C 648.71875 837.058594 653.878906 837.40625 658.964844 836.949219 C 663.058594 836.582031 666.242188 834.019531 668.105469 830.304688 C 669.449219 827.613281 670.40625 824.730469 671.484375 821.914062 C 672.089844 820.332031 672.589844 818.699219 673.316406 816.589844 C 674.882812 820.496094 675.324219 851.8125 674.09375 861.128906 C 673.285156 859.917969 672.632812 859.257812 672.363281 858.476562 C 671.261719 855.289062 670.519531 851.949219 669.203125 848.859375 C 666.921875 843.535156 662.761719 840.324219 656.902344 839.941406 C 652.507812 839.660156 648.085938 839.890625 643.28125 839.890625 C 643.28125 856.914062 643.28125 873.539062 643.28125 890.117188 C 643.628906 890.371094 643.902344 890.75 644.179688 890.75 C 654.140625 890.792969 664.109375 891.039062 674.070312 890.71875 C 680.496094 890.515625 685.355469 886.710938 689.511719 882.089844 C 693.285156 877.90625 695.558594 872.90625 697.027344 867.519531 C 697.488281 865.828125 697.945312 864.132812 698.472656 862.175781 C 700.273438 865.148438 700.761719 884.601562 699.371094 892.808594 C 670.679688 892.808594 641.925781 892.808594 612.582031 892.808594 C 615.015625 889.925781 617.796875 891.328125 620.160156 891.097656 C 622.753906 890.84375 625.382812 891.035156 628.28125 891.035156 C 628.28125 858.398438 628.28125 826.425781 628.28125 793.730469 C 623.140625 793.730469 618.09375 793.730469 612.851562 793.730469 C 613.417969 790.910156 615.125 791.527344 616.355469 791.515625 C 625.257812 791.453125 634.164062 791.480469 643.074219 791.480469 C 658.039062 791.480469 673.003906 791.480469 687.96875 791.480469 C 689.886719 791.480469 691.792969 791.480469 693.570312 791.480469 C 694.824219 797.035156 694.695312 811.582031 693.316406 816.113281 C 692.578125 814.710938 692.011719 813.742188 691.523438 812.726562 C 690.300781 810.164062 689.261719 807.492188 687.882812 805.011719 C 684.46875 798.90625 679.402344 794.597656 672.300781 794.25 C 662.765625 793.78125 653.1875 794.140625 643.253906 794.140625 C 643.25 808.480469 643.25 822.777344 643.25 837.058594 Z M 643.25 837.058594 " fill-opacity="1" fill-rule="evenodd"/><path fill="#242424" d="M 892.5625 891.90625 C 898.164062 890.117188 903.347656 891.84375 908.488281 890.546875 C 908.488281 858.480469 908.488281 826.5 908.488281 793.808594 C 903.449219 793.808594 898.394531 793.808594 893.351562 793.808594 C 893.28125 793.40625 893.207031 793.011719 893.132812 792.617188 C 893.902344 792.25 894.664062 791.578125 895.4375 791.5625 C 899.539062 791.449219 903.625 791.492188 907.730469 791.492188 C 927.867188 791.492188 947.996094 791.492188 968.128906 791.492188 C 970.042969 791.492188 971.96875 791.492188 974.519531 791.492188 C 974.785156 799.871094 974.667969 807.6875 974.628906 815.507812 C 974.230469 815.597656 973.820312 815.683594 973.40625 815.769531 C 972.929688 814.964844 972.367188 814.199219 971.984375 813.359375 C 970.941406 811.097656 970.046875 808.765625 968.949219 806.539062 C 965.289062 799.105469 959.441406 794.375 951.078125 793.96875 C 942.050781 793.527344 932.988281 793.871094 923.539062 793.871094 C 923.539062 808.390625 923.539062 822.6875 923.539062 837.753906 C 929.078125 837.476562 934.417969 837.601562 939.628906 836.867188 C 944.621094 836.160156 947.703125 832.546875 949.519531 828.007812 C 950.957031 824.4375 952.140625 820.757812 953.75 816.230469 C 955.710938 820.597656 954.683594 824.273438 954.855469 827.800781 C 955.042969 831.523438 954.90625 835.269531 954.90625 839.007812 C 954.90625 842.574219 954.921875 846.136719 954.890625 849.695312 C 954.863281 853.300781 954.777344 856.902344 954.714844 860.496094 C 954.238281 860.582031 953.757812 860.65625 953.289062 860.734375 C 952.804688 859.175781 952.34375 857.609375 951.839844 856.070312 C 951.007812 853.542969 950.34375 850.925781 949.25 848.511719 C 946.941406 843.40625 942.894531 840.351562 937.261719 839.960938 C 932.867188 839.667969 928.429688 839.898438 924.109375 839.898438 C 922.929688 843.953125 922.574219 881.839844 923.605469 890.515625 C 924.824219 890.683594 926.160156 891.011719 927.503906 891.019531 C 934.269531 891.070312 941.035156 891.050781 947.808594 891.046875 C 962.335938 891.027344 971.824219 884.101562 976.410156 870.136719 C 977.265625 867.527344 978.019531 864.882812 979.003906 861.660156 C 980.472656 865.921875 980.785156 885.21875 979.75 892.351562 C 974.929688 893.628906 897.269531 893.5 892.5625 891.90625 Z M 892.5625 891.90625 " fill-opacity="1" fill-rule="evenodd"/><path fill="#242424" d="M 417.535156 891.378906 C 422.359375 891.378906 427.171875 891.378906 431.785156 891.378906 C 433.015625 886.960938 433.328125 801.15625 432.21875 793.601562 C 427.371094 793.601562 422.378906 793.601562 417.390625 793.601562 C 417.351562 793.191406 417.3125 792.777344 417.273438 792.367188 C 418.140625 792.082031 419 791.558594 419.867188 791.542969 C 434.289062 791.402344 448.71875 791.191406 463.140625 791.292969 C 471.285156 791.351562 478.996094 793.460938 485.925781 797.902344 C 491.523438 801.488281 495.632812 806.335938 497.039062 812.964844 C 499.03125 822.386719 496.164062 830.238281 488.515625 836.121094 C 478.691406 843.660156 467.257812 845.621094 455.222656 845.140625 C 452.765625 845.042969 450.3125 844.75 447.484375 844.503906 C 447.484375 860.039062 447.484375 875.085938 447.484375 890.746094 C 452.515625 890.9375 457.507812 891.128906 462.398438 891.3125 C 462.464844 892.027344 462.515625 892.207031 462.484375 892.382812 C 462.460938 892.515625 462.335938 892.726562 462.238281 892.726562 C 460.660156 892.886719 459.085938 893.152344 457.503906 893.152344 C 444.183594 893.1875 430.863281 893.171875 417.542969 893.171875 C 417.535156 892.574219 417.535156 891.96875 417.535156 891.378906 Z M 447.507812 793.707031 C 447.507812 809.925781 447.507812 825.808594 447.507812 841.585938 C 452.523438 843.09375 457.957031 843.5 463.039062 842.824219 C 471.800781 841.664062 477.773438 836.519531 479.9375 828.039062 C 481.773438 820.832031 481.601562 813.5625 479.722656 806.398438 C 478.175781 800.472656 474.425781 796.371094 468.410156 794.714844 C 461.640625 792.84375 454.757812 793.109375 447.507812 793.707031 Z M 447.507812 793.707031 " fill-opacity="1" fill-rule="evenodd"/><path fill="#242424" d="M 868.449219 793.328125 C 868.449219 826.257812 868.449219 858.234375 868.449219 890.832031 C 873.519531 890.972656 878.507812 891.117188 883.335938 891.25 C 883.445312 892.113281 883.53125 892.304688 883.476562 892.46875 C 883.4375 892.597656 883.253906 892.785156 883.140625 892.785156 C 868.910156 892.914062 854.675781 893.046875 840.445312 893.125 C 839.824219 893.132812 839.199219 892.804688 838.570312 892.152344 C 843.28125 890.070312 848.476562 891.914062 853.449219 890.527344 C 853.449219 858.335938 853.449219 826.199219 853.449219 793.4375 C 848.238281 793.4375 843.390625 793.4375 838.542969 793.4375 C 842.019531 790.65625 845.855469 791.707031 849.535156 791.53125 C 853.449219 791.355469 857.375 791.496094 861.300781 791.496094 C 865.035156 791.496094 868.777344 791.386719 872.519531 791.53125 C 876.226562 791.671875 880.0625 790.8125 883.648438 792.191406 C 883.636719 792.570312 883.628906 792.953125 883.621094 793.332031 C 878.792969 793.328125 873.964844 793.328125 868.449219 793.328125 Z M 868.449219 793.328125 " fill-opacity="1" fill-rule="evenodd"/><path fill="#242424" d="M 876.40625 755.132812 C 868.394531 760.164062 856.757812 756.914062 856.15625 746.941406 C 855.875 742.324219 855.402344 737.71875 854.769531 733.140625 C 853.574219 724.429688 850.15625 721.394531 841.414062 721.058594 C 838.449219 720.949219 835.476562 721.042969 832.265625 721.042969 C 832.265625 732.753906 832.265625 743.703125 832.265625 754.921875 C 835.546875 755.1875 838.566406 755.425781 841.582031 755.664062 C 841.554688 755.96875 841.527344 756.273438 841.503906 756.585938 C 831.953125 756.585938 822.40625 756.585938 812.863281 756.585938 C 812.820312 756.265625 812.796875 755.941406 812.757812 755.617188 C 815.765625 755.414062 818.761719 755.210938 822.046875 754.984375 C 822.046875 733.644531 822.046875 712.519531 822.046875 690.902344 C 818.992188 690.664062 815.917969 690.433594 812.859375 690.191406 C 812.816406 689.921875 812.785156 689.644531 812.75 689.367188 C 813.421875 689.207031 814.097656 688.90625 814.785156 688.902344 C 823.863281 688.808594 832.964844 688.683594 842.046875 688.75 C 844.878906 688.773438 847.765625 689.066406 850.519531 689.699219 C 857.566406 691.308594 862.667969 697.242188 863.039062 703.902344 C 863.402344 710.515625 859.785156 715.679688 852.769531 718.546875 C 851.636719 719.011719 850.496094 719.429688 849.1875 719.933594 C 849.640625 720.3125 849.832031 720.585938 850.070312 720.652344 C 861.765625 723.894531 864.53125 727.347656 865.1875 739.355469 C 865.332031 742.199219 865.527344 745.054688 865.941406 747.867188 C 867.007812 755.160156 869.285156 756.679688 876.40625 755.132812 Z M 832.171875 719.144531 C 843.183594 720.710938 848.222656 719.359375 850.816406 714.367188 C 853.757812 708.699219 852.808594 697.625 849.03125 693.640625 C 845.585938 690.023438 837.722656 688.921875 832.171875 691.335938 C 832.171875 700.476562 832.171875 709.65625 832.171875 719.144531 Z M 832.171875 719.144531 " fill-opacity="1" fill-rule="evenodd"/><path fill="#242424" d="M 636.640625 719.347656 C 641.523438 719.8125 646.617188 720.953125 650.183594 717.667969 C 653.207031 714.882812 654.804688 710.546875 657.230469 706.578125 C 657.230469 715.960938 657.230469 725.097656 657.230469 734.90625 C 656.5 733.941406 655.871094 733.433594 655.664062 732.789062 C 652.195312 721.847656 648.765625 719.746094 637.167969 721.539062 C 636.121094 725.320312 635.820312 745.992188 636.738281 754.765625 C 637.96875 754.921875 639.300781 755.238281 640.640625 755.269531 C 644.738281 755.332031 648.839844 755.320312 652.9375 755.285156 C 662.238281 755.1875 668.320312 750.890625 671.535156 742.152344 C 672.179688 740.40625 672.746094 738.632812 674.105469 737.019531 C 674.105469 743.417969 674.105469 749.820312 674.105469 756.570312 C 654.992188 756.570312 636.054688 756.570312 616.171875 756.570312 C 619.742188 754.304688 623.101562 756.050781 626.265625 754.75 C 626.265625 733.625 626.265625 712.347656 626.265625 690.832031 C 623.046875 690.601562 620.039062 690.378906 617.03125 690.15625 C 617.058594 689.839844 617.089844 689.515625 617.121094 689.199219 C 634.761719 689.199219 652.402344 689.199219 670.351562 689.199219 C 670.351562 694.492188 670.351562 699.496094 670.351562 704.511719 C 670.109375 704.582031 669.867188 704.644531 669.621094 704.730469 C 668.882812 703.214844 668.105469 701.726562 667.425781 700.195312 C 664.628906 693.847656 659.914062 690.46875 652.851562 690.53125 C 647.550781 690.570312 642.25 690.535156 636.632812 690.535156 C 636.640625 700.449219 636.640625 709.773438 636.640625 719.347656 Z M 636.640625 719.347656 " fill-opacity="1" fill-rule="evenodd"/><path fill="#242424" d="M 884.199219 722.441406 C 884.324219 708.011719 894.074219 694.035156 907.582031 689.089844 C 913.796875 686.8125 920.128906 686.707031 926.433594 688.726562 C 941.070312 693.414062 951.097656 708.144531 950.5625 724.0625 C 950.039062 739.691406 938.660156 754.136719 923.824219 757.472656 C 912.035156 760.113281 902.003906 756.347656 893.859375 747.707031 C 887.234375 740.675781 884.183594 732.105469 884.199219 722.441406 Z M 939.863281 723.855469 C 939.328125 718.113281 939.015625 713.492188 938.414062 708.910156 C 938.109375 706.636719 937.429688 704.375 936.628906 702.21875 C 934.425781 696.277344 930.757812 691.6875 924.441406 689.695312 C 911.949219 685.773438 901.023438 691.527344 897.414062 704.292969 C 895.023438 712.761719 894.570312 721.503906 895.558594 730.238281 C 896.085938 734.980469 896.980469 739.742188 898.328125 744.304688 C 899.738281 749.066406 902.890625 752.726562 907.519531 754.894531 C 920.503906 760.96875 934.316406 754.632812 937.585938 740.71875 C 938.949219 734.875 939.230469 728.757812 939.863281 723.855469 Z M 939.863281 723.855469 " fill-opacity="1" fill-rule="evenodd"/><path fill="#242424" d="M 575.800781 690.800781 C 570 690.386719 564.4375 689.503906 560.484375 693.539062 C 557.160156 696.925781 554.925781 701.382812 552.035156 705.625 C 552.035156 700.242188 552.035156 695.015625 552.035156 689.789062 C 555.738281 688.660156 600.902344 688.304688 609.25 689.378906 C 610.195312 694.664062 609.566406 700.03125 609.203125 705.554688 C 606.328125 700.222656 604.335938 694.347656 598.332031 691.734375 C 594.457031 690.039062 590.394531 690.441406 586.019531 690.757812 C 586.019531 712.269531 586.019531 733.523438 586.019531 755.03125 C 589.144531 755.222656 592.003906 755.398438 594.859375 755.578125 C 594.835938 755.90625 594.816406 756.238281 594.789062 756.554688 C 585.355469 756.554688 575.914062 756.554688 565.972656 756.554688 C 569.039062 753.921875 572.792969 756.476562 575.804688 754.414062 C 575.800781 733.472656 575.800781 712.367188 575.800781 690.800781 Z M 575.800781 690.800781 " fill-opacity="1" fill-rule="evenodd"/><path fill="#242424" d="M 747.792969 689.171875 C 767.132812 689.171875 785.925781 689.171875 805.027344 689.171875 C 805.027344 694.734375 805.027344 700.007812 805.027344 706.339844 C 803.144531 702.726562 801.832031 699.824219 800.171875 697.136719 C 798.34375 694.195312 795.773438 691.785156 792.308594 691.132812 C 789.023438 690.519531 785.613281 690.601562 782.355469 690.394531 C 781.0625 694.433594 780.617188 744.976562 781.734375 754.894531 C 784.617188 755.148438 787.613281 755.414062 790.601562 755.664062 C 790.582031 755.964844 790.542969 756.257812 790.511719 756.550781 C 781.03125 756.550781 771.550781 756.550781 762.066406 756.550781 C 762.03125 756.257812 762.003906 755.964844 761.972656 755.65625 C 764.984375 755.417969 767.988281 755.191406 771.328125 754.925781 C 771.328125 733.519531 771.328125 712.269531 771.328125 690.808594 C 765.84375 690.386719 760.316406 689.453125 756.332031 693.425781 C 752.945312 696.800781 750.640625 701.257812 747.792969 705.324219 C 747.792969 700.1875 747.792969 694.871094 747.792969 689.171875 Z M 747.792969 689.171875 " fill-opacity="1" fill-rule="evenodd"/><path fill="#242424" d="M 681.371094 755.523438 C 683.632812 755.371094 685.890625 755.234375 688.691406 755.054688 C 692.984375 743.683594 697.242188 732.214844 701.644531 720.792969 C 705.957031 709.609375 709.890625 698.265625 714.480469 687.289062 C 717.886719 687.800781 717.804688 690.191406 718.441406 691.851562 C 725.648438 710.628906 732.769531 729.4375 739.914062 748.238281 C 740.734375 750.390625 741.578125 752.53125 742.488281 754.855469 C 745.015625 755.15625 747.484375 755.441406 749.960938 755.742188 C 749.929688 756.03125 749.886719 756.3125 749.851562 756.601562 C 740.78125 756.601562 731.710938 756.601562 721.699219 756.601562 C 725.074219 754.347656 728.265625 756.0625 731.269531 754.707031 C 730.875 750.203125 728.523438 746.210938 727.058594 741.972656 C 725.617188 737.78125 723.925781 733.691406 722.285156 729.390625 C 715.015625 729.390625 707.929688 729.390625 700.148438 729.390625 C 697.050781 737.570312 693.871094 745.972656 690.503906 754.878906 C 693.886719 755.164062 696.765625 755.394531 700.503906 755.6875 C 696.042969 757.199219 687.089844 757.363281 681.371094 755.523438 Z M 700.941406 727.492188 C 705.207031 727.492188 708.382812 727.578125 711.554688 727.472656 C 714.632812 727.375 717.789062 727.972656 721.238281 726.917969 C 718.042969 718.214844 715.105469 709.917969 710.59375 701.9375 C 707.492188 710.148438 704.390625 718.363281 700.941406 727.492188 Z M 700.941406 727.492188 " fill-opacity="1" fill-rule="evenodd"/><path fill="#242424" d="M 969.375 728.738281 C 969.375 726.722656 969.375 724.996094 969.375 723.3125 C 973.230469 722.164062 1062.847656 721.773438 1071.101562 722.875 C 1071.101562 724.667969 1071.101562 726.515625 1071.101562 728.402344 C 1067.429688 729.417969 978.167969 729.800781 969.375 728.738281 Z M 969.375 728.738281 " fill-opacity="1" fill-rule="evenodd"/><path fill="#242424" d="M 531.496094 722.726562 C 531.496094 724.773438 531.496094 726.621094 531.496094 728.859375 C 497.652344 728.859375 463.953125 728.859375 429.984375 728.859375 C 429.855469 727.726562 429.675781 726.710938 429.648438 725.699219 C 429.628906 724.832031 429.789062 723.957031 429.898438 722.734375 C 463.746094 722.726562 497.449219 722.726562 531.496094 722.726562 Z M 531.496094 722.726562 " fill-opacity="1" fill-rule="evenodd"/><path fill="#242424" d="M 643.054688 957.253906 C 647.851562 955.425781 646.882812 951.507812 646.929688 947.929688 C 646.949219 945.972656 646.878906 944.011719 646.945312 942.070312 C 647.058594 938.707031 647.359375 935.320312 643.425781 933.832031 C 643.78125 933.175781 643.941406 932.628906 644.105469 932.628906 C 650.132812 932.566406 656.242188 931.894531 662.160156 932.675781 C 672.117188 933.984375 676.652344 942.972656 672.363281 951.6875 C 670.789062 954.894531 668.320312 957.507812 664.785156 957.828125 C 658.085938 958.429688 651.335938 958.402344 644.597656 958.5625 C 644.242188 958.570312 643.867188 957.957031 643.054688 957.253906 Z M 654.34375 935.09375 C 654.34375 941.152344 654.367188 946.8125 654.335938 952.488281 C 654.324219 954.996094 655.640625 956.261719 657.976562 955.871094 C 659.820312 955.570312 661.894531 955.023438 663.28125 953.871094 C 666.429688 951.246094 667.15625 944.265625 665.144531 939.855469 C 663.253906 935.683594 661.15625 934.683594 654.34375 935.09375 Z M 654.34375 935.09375 " fill-opacity="1" fill-rule="evenodd"/><path fill="#242424" d="M 728.753906 933.792969 C 734.679688 931.675781 747.398438 931.914062 751.5 933.5 C 757.707031 935.914062 760.535156 940.445312 759.800781 946.777344 C 759.050781 953.242188 755.472656 957.460938 749.0625 958.140625 C 743.078125 958.773438 736.996094 958.589844 730.96875 958.679688 C 730.429688 958.695312 729.886719 958.035156 728.601562 957.207031 C 734.128906 955.585938 733.089844 951.558594 733.152344 947.96875 C 733.1875 946.015625 733.203125 944.054688 733.152344 942.105469 C 733.054688 938.800781 734.152344 934.964844 728.753906 933.792969 Z M 740.273438 935.414062 C 740.273438 940.933594 740.148438 946.585938 740.324219 952.238281 C 740.417969 955.339844 741.699219 956.171875 744.863281 955.917969 C 747.5625 955.691406 749.605469 954.453125 750.765625 951.972656 C 752.234375 948.847656 752.84375 945.601562 751.96875 942.152344 C 750.457031 936.175781 747.535156 934.332031 740.273438 935.414062 Z M 740.273438 935.414062 " fill-opacity="1" fill-rule="evenodd"/><path fill="#242424" d="M 687.582031 935.585938 C 687.582031 938.003906 687.582031 940.285156 687.582031 942.585938 C 690.820312 944.308594 692.550781 942.4375 694.242188 939.402344 C 696.261719 943.140625 695.296875 946.1875 694.761719 949.472656 C 692.746094 947.492188 691.207031 945.101562 687.804688 946.605469 C 687.695312 947.421875 687.375 948.445312 687.441406 949.457031 C 687.589844 951.777344 686.457031 954.675781 689.933594 955.691406 C 693.117188 956.640625 697.207031 955.390625 699.070312 952.917969 C 699.714844 952.078125 700.398438 951.253906 701.0625 950.429688 C 701.453125 950.558594 701.839844 950.707031 702.230469 950.847656 C 702.078125 953.328125 701.925781 955.796875 701.777344 958.148438 C 694.863281 959.328125 680.089844 959.058594 676.234375 957.628906 C 676.855469 956.953125 677.265625 956.121094 677.894531 955.898438 C 679.8125 955.214844 680.089844 953.765625 680.09375 952.082031 C 680.09375 948.871094 680.109375 945.667969 680.109375 942.46875 C 680.109375 936.792969 680.105469 936.792969 676.558594 933.46875 C 679.507812 931.964844 689.585938 931.582031 700.035156 932.65625 C 700.15625 934.835938 700.277344 937.101562 700.402344 939.371094 C 700.101562 939.617188 699.800781 939.871094 699.5 940.109375 C 696.746094 934.808594 692.722656 933.671875 687.582031 935.585938 Z M 687.582031 935.585938 " fill-opacity="1" fill-rule="evenodd"/><path fill="#242424" d="M 787.753906 949.710938 C 787.753906 953.269531 787.753906 955.726562 787.753906 958.132812 C 781.90625 959.226562 766.585938 959.046875 762.746094 957.902344 C 762.703125 957.574219 762.566406 956.960938 762.648438 956.925781 C 765.847656 955.644531 766.34375 953.097656 766.144531 950.042969 C 765.984375 947.382812 766.046875 944.707031 766.140625 942.039062 C 766.25 938.644531 766.492188 935.234375 762.109375 933.777344 C 765.625 931.929688 774.75 931.546875 785.90625 932.613281 C 786.171875 934.789062 786.445312 937.058594 786.730469 939.324219 C 786.363281 939.460938 785.988281 939.605469 785.625 939.746094 C 784.15625 938.25 782.941406 936.171875 781.167969 935.425781 C 779.175781 934.589844 776.683594 934.957031 773.882812 934.777344 C 773.882812 937.71875 773.882812 940.226562 773.882812 942.746094 C 777.054688 944.136719 778.90625 942.5 780.109375 939.386719 C 781.957031 943.3125 782.011719 944.496094 780.730469 949.769531 C 778.683594 948.058594 777.40625 944.546875 773.761719 946.796875 C 773.675781 947.265625 773.378906 947.960938 773.4375 948.625 C 773.652344 951.105469 772.304688 954.214844 775.703125 955.597656 C 778.960938 956.929688 783.207031 955.359375 785.453125 952.226562 C 785.890625 951.601562 786.480469 951.085938 787.753906 949.710938 Z M 787.753906 949.710938 " fill-opacity="1" fill-rule="evenodd"/><path fill="#242424" d="M 724.65625 932.355469 C 724.65625 934.269531 724.65625 936.625 724.65625 940.109375 C 723.113281 938.652344 722.214844 937.992188 721.550781 937.152344 C 719.90625 935.0625 717.8125 933.667969 715.167969 933.984375 C 714.019531 934.125 712.628906 935.214844 712.09375 936.253906 C 711.808594 936.800781 712.90625 938.460938 713.761719 939.101562 C 715.007812 940.050781 716.621094 940.496094 718.046875 941.210938 C 719.628906 942.011719 721.257812 942.769531 722.734375 943.734375 C 726.167969 945.988281 727.175781 948.5625 726.394531 952.367188 C 725.628906 956.113281 723.273438 958.410156 719.648438 959.03125 C 717.425781 959.410156 715.027344 959.242188 712.773438 958.886719 C 710.449219 958.507812 708.261719 956.402344 705.789062 960.203125 C 705.167969 955.820312 704.394531 952.964844 706.453125 949.46875 C 707.730469 951.003906 708.671875 952.164062 709.628906 953.289062 C 711.441406 955.425781 713.714844 957.058594 716.519531 956.660156 C 717.984375 956.449219 719.8125 955.140625 720.417969 953.84375 C 720.800781 953.027344 719.566406 950.832031 718.484375 950.074219 C 716.324219 948.554688 713.730469 947.695312 711.394531 946.414062 C 706.640625 943.828125 705.136719 940.632812 706.597656 936.535156 C 707.875 932.960938 712.027344 930.871094 716.738281 931.433594 C 719.246094 931.734375 721.75 932.019531 724.65625 932.355469 Z M 724.65625 932.355469 " fill-opacity="1" fill-rule="evenodd"/><path fill="#242424" d="M 839.570312 950.644531 C 837.796875 950.644531 836.597656 950.683594 835.382812 950.636719 C 830.785156 950.503906 827.335938 947.773438 826.527344 943.640625 C 825.609375 938.941406 827.601562 935.019531 831.851562 933.125 C 836.027344 931.277344 840.878906 932.320312 843.496094 935.644531 C 847.652344 940.910156 846.410156 952.550781 841.242188 956.804688 C 837.964844 959.507812 831.617188 959.953125 828.160156 957.539062 C 827.222656 956.878906 826.234375 955.71875 826.089844 954.664062 C 825.964844 953.730469 826.75 952.140625 827.542969 951.777344 C 828.234375 951.464844 829.582031 952.402344 830.515625 952.984375 C 830.847656 953.191406 830.78125 953.992188 831.011719 954.46875 C 832.535156 957.605469 835.621094 958.023438 837.601562 955.226562 C 838.476562 953.996094 838.839844 952.402344 839.570312 950.644531 Z M 839.722656 941.761719 C 839.464844 940.085938 839.484375 938.414062 838.890625 936.976562 C 838.492188 935.996094 837.160156 934.664062 836.386719 934.746094 C 835.25 934.875 833.753906 935.914062 833.273438 936.960938 C 831.875 939.964844 831.867188 943.226562 833.25 946.265625 C 833.6875 947.207031 835.03125 948.261719 835.976562 948.265625 C 836.898438 948.292969 838.25 947.25 838.691406 946.316406 C 839.371094 944.945312 839.421875 943.261719 839.722656 941.761719 Z M 839.722656 941.761719 " fill-opacity="1" fill-rule="evenodd"/><path fill="#242424" d="M 868.035156 958.820312 C 864.453125 958.820312 862.1875 958.855469 859.921875 958.796875 C 858.546875 958.773438 857.1875 958.605469 855.082031 958.449219 C 856.414062 956.546875 857.375 955.167969 858.933594 952.941406 C 855.242188 952.6875 852.363281 952.496094 849.097656 952.269531 C 849.425781 951.03125 849.488281 949.949219 849.976562 949.136719 C 852.898438 944.242188 855.949219 939.4375 858.875 934.550781 C 860.023438 932.625 861.355469 931.546875 864.097656 932.730469 C 864.097656 937.992188 864.097656 943.449219 864.097656 949.65625 C 866.191406 949.117188 867.691406 948.742188 869.15625 948.375 C 870.34375 952.480469 867.070312 952.417969 863.832031 953.105469 C 865.191406 954.953125 866.199219 956.3125 868.035156 958.820312 Z M 858.164062 949.449219 C 858.191406 946.789062 858.855469 944.636719 857.339844 942 C 855.703125 944.636719 854.375 946.761719 852.707031 949.449219 C 854.925781 949.449219 856.269531 949.449219 858.164062 949.449219 Z M 858.164062 949.449219 " fill-opacity="1" fill-rule="evenodd"/><path fill="#242424" d="M 878.796875 957.636719 C 880.160156 956.039062 881.183594 954.847656 882.808594 952.953125 C 878.753906 952.664062 875.84375 952.449219 872.496094 952.210938 C 872.949219 950.867188 873.109375 949.828125 873.613281 948.992188 C 876.535156 944.128906 879.574219 939.335938 882.492188 934.460938 C 883.652344 932.523438 885.007812 931.535156 887.691406 932.808594 C 887.691406 938.050781 887.691406 943.5 887.691406 949.800781 C 889.6875 949.15625 891.046875 948.738281 892.523438 948.261719 C 894.011719 949.515625 892.636719 951.765625 889.65625 952.578125 C 889.160156 952.71875 888.683594 952.925781 887.5625 953.34375 C 888.730469 954.941406 889.734375 956.308594 890.777344 957.738281 C 886.507812 959.238281 882.910156 959.21875 878.796875 957.636719 Z M 881.59375 949.371094 C 881.59375 946.789062 881.59375 944.546875 881.59375 942.3125 C 881.324219 942.230469 881.054688 942.15625 880.789062 942.074219 C 879.410156 944.339844 878.035156 946.621094 876.375 949.371094 C 878.613281 949.371094 880.074219 949.371094 881.59375 949.371094 Z M 881.59375 949.371094 " fill-opacity="1" fill-rule="evenodd"/><path fill="#242424" d="M 819.152344 957.8125 C 814.707031 959.066406 810.542969 959.082031 804.863281 958.050781 C 810.714844 955.164062 809.546875 950.800781 809.609375 946.808594 C 809.625 945.023438 809.621094 943.234375 809.609375 941.460938 C 809.566406 937.863281 809.558594 937.863281 806.621094 935.1875 C 809.550781 934.175781 812.324219 933.214844 815.847656 932.007812 C 815.847656 938.074219 815.960938 943.679688 815.789062 949.28125 C 815.695312 952.550781 815.710938 955.585938 819.152344 957.8125 Z M 819.152344 957.8125 " fill-opacity="1" fill-rule="evenodd"/><path fill="#242424" d="M 703.96875 614.300781 C 717.441406 621.902344 728.824219 619.554688 739.613281 610.839844 C 738.082031 617.613281 731.386719 622.714844 723.066406 623.789062 C 714.371094 624.90625 708.125 622.097656 703.96875 614.300781 Z M 703.96875 614.300781 " fill-opacity="1" fill-rule="evenodd"/><path fill="#242424" d="M 716.625 598.75 C 709.070312 592.210938 706.351562 592.011719 698.214844 597.066406 C 697.691406 593.214844 699.511719 590.792969 702.417969 589.171875 C 705.925781 587.203125 709.621094 587.3125 712.996094 589.511719 C 715.988281 591.46875 717.425781 594.269531 716.625 598.75 Z M 716.625 598.75 " fill-opacity="1" fill-rule="evenodd"/><path fill="#242424" d="M 729.425781 597.078125 C 729.25 591.4375 731.273438 587.945312 735.265625 586.644531 C 738.539062 585.578125 740.734375 586.648438 743.609375 590.914062 C 741 591.246094 738.289062 591.050781 736.078125 592.011719 C 733.738281 593.027344 731.886719 595.132812 729.425781 597.078125 Z M 729.425781 597.078125 " fill-opacity="1" fill-rule="evenodd"/><path fill="#242424" d="M 762.820312 631.523438 C 765.320312 624.488281 772.292969 621.109375 781.449219 622.503906 C 791.515625 624.027344 799.039062 631.660156 799.253906 640.566406 C 785.707031 626.871094 777.375 626.070312 762.820312 631.523438 Z M 762.820312 631.523438 " fill-opacity="1" fill-rule="evenodd"/><path fill="#242424" d="M 804.785156 611.289062 C 802.625 616.597656 799.277344 618.761719 795.042969 617.941406 C 789.742188 616.914062 786.128906 612.058594 786.050781 605.234375 C 791.375 610.492188 796.949219 614.355469 804.785156 611.289062 Z M 804.785156 611.289062 " fill-opacity="1" fill-rule="evenodd"/><path fill="#242424" d="M 759.621094 607.746094 C 764.925781 610.234375 769.679688 609.550781 773.847656 605.167969 C 773.894531 610.835938 771.578125 614.160156 767.617188 614.667969 C 763.816406 615.15625 760.464844 612.445312 759.621094 607.746094 Z M 759.621094 607.746094 " fill-opacity="1" fill-rule="evenodd"/></svg>